<svg width="24" height="16" viewBox="0 0 24 16" fill="none" xmlns="http://www.w3.org/2000/svg">
<path d="M15.4191 14.3404C15.4929 14.4536 15.5348 14.5845 15.5403 14.7195C15.5458 14.8545 15.5147 14.9885 15.4504 15.1073C15.3861 15.2261 15.2908 15.3253 15.1748 15.3944C15.0587 15.4636 14.9261 15.5001 14.791 15.5001H0.959137C0.824039 15.5001 0.691454 15.4636 0.57539 15.3944C0.459326 15.3253 0.364092 15.2261 0.29975 15.1073C0.235409 14.9885 0.204348 14.8545 0.209851 14.7195C0.215354 14.5845 0.257215 14.4536 0.331012 14.3404C1.38674 12.7154 2.9396 11.4752 4.75789 10.8051C3.7527 10.1359 2.98955 9.16097 2.58129 8.02451C2.17303 6.88804 2.14135 5.65036 2.49091 4.49449C2.84047 3.33862 3.55273 2.32593 4.52236 1.60617C5.49199 0.886416 6.6675 0.497803 7.87507 0.497803C9.08265 0.497803 10.2582 0.886416 11.2278 1.60617C12.1974 2.32593 12.9097 3.33862 13.2592 4.49449C13.6088 5.65036 13.5771 6.88804 13.1689 8.02451C12.7606 9.16097 11.9975 10.1359 10.9923 10.8051C12.8106 11.4752 14.3634 12.7154 15.4191 14.3404ZM23.6607 14.3263C22.6047 12.7081 21.0553 11.4734 19.2423 10.8051C20.4289 10.0057 21.2664 8.78421 21.5842 7.38916C21.902 5.99411 21.6762 4.53038 20.9528 3.29592C20.2295 2.06146 19.0629 1.14906 17.6905 0.744425C16.3181 0.339791 14.8431 0.473344 13.5657 1.1179C13.5169 1.14312 13.4742 1.17877 13.4406 1.22232C13.4071 1.26588 13.3835 1.31628 13.3716 1.36995C13.3597 1.42362 13.3598 1.47925 13.3718 1.53289C13.3838 1.58654 13.4074 1.6369 13.441 1.6804C14.3909 2.86522 14.9364 4.32306 14.9976 5.84038C15.0588 7.3577 14.6326 8.85476 13.7813 10.1123C13.7263 10.1945 13.706 10.295 13.7248 10.3921C13.7435 10.4892 13.7999 10.575 13.8816 10.6307C14.9915 11.4053 15.9417 12.3867 16.6801 13.521C16.9779 13.9771 17.0995 14.5259 17.0223 15.0651C17.0136 15.1187 17.0166 15.1736 17.0312 15.2259C17.0459 15.2783 17.0717 15.3268 17.1069 15.3682C17.1421 15.4095 17.1859 15.4428 17.2352 15.4655C17.2846 15.4883 17.3382 15.5001 17.3926 15.5001H23.0457C23.2108 15.5001 23.3714 15.4457 23.5024 15.3452C23.6335 15.2446 23.7277 15.1037 23.7704 14.9441C23.7965 14.8392 23.8002 14.73 23.7813 14.6236C23.7624 14.5171 23.7213 14.4159 23.6607 14.3263Z" fill="#1E293B"/>
</svg>
