<svg width="18" height="21" viewBox="0 0 18 21" fill="none" xmlns="http://www.w3.org/2000/svg">
<path d="M13.2928 3.82624C12.1269 2.59764 10.815 1.51647 9.38625 0.606863C9.2696 0.536781 9.13608 0.499756 9 0.499756C8.86392 0.499756 8.7304 0.536781 8.61375 0.606863C7.18501 1.51647 5.87305 2.59764 4.70719 3.82624C2.11781 6.54499 0.75 9.54405 0.75 12.5C0.75 14.688 1.61919 16.7864 3.16637 18.3336C4.71354 19.8808 6.81196 20.75 9 20.75C11.188 20.75 13.2865 19.8808 14.8336 18.3336C16.3808 16.7864 17.25 14.688 17.25 12.5C17.25 9.54405 15.8822 6.54499 13.2928 3.82624ZM6 16.25C6 13.6559 8.11219 11.8175 9 11.1594C9.88875 11.8156 12 13.6559 12 16.25C12 17.0456 11.6839 17.8087 11.1213 18.3713C10.5587 18.9339 9.79565 19.25 9 19.25C8.20435 19.25 7.44129 18.9339 6.87868 18.3713C6.31607 17.8087 6 17.0456 6 16.25Z" fill="#1E293B"/>
</svg>
