<svg width="33" height="40" viewBox="0 0 33 40" fill="none" xmlns="http://www.w3.org/2000/svg">
<path d="M33 20C33.0012 20.5093 32.8707 21.0102 32.6209 21.4541C32.3712 21.898 32.0109 22.2697 31.575 22.5331L4.56 39.0593C4.10454 39.3382 3.58288 39.4905 3.0489 39.5004C2.51492 39.5103 1.98798 39.3774 1.5225 39.1156C1.06146 38.8578 0.677393 38.4819 0.409807 38.0264C0.142221 37.571 0.000770358 37.0525 0 36.5243V3.47558C0.000770358 2.94737 0.142221 2.42889 0.409807 1.97347C0.677393 1.51804 1.06146 1.14211 1.5225 0.884334C1.98798 0.622488 2.51492 0.489649 3.0489 0.499538C3.58288 0.509426 4.10454 0.661684 4.56 0.940585L31.575 17.4668C32.0109 17.7302 32.3712 18.1019 32.6209 18.5458C32.8707 18.9897 33.0012 19.4907 33 20Z" fill="white"/>
</svg>
