<svg width="20" height="19" viewBox="0 0 20 19" fill="none" xmlns="http://www.w3.org/2000/svg">
<path d="M19.6497 18.6251C19.5838 18.7391 19.4891 18.8338 19.3751 18.8997C19.261 18.9655 19.1316 19.0001 19 19.0001H0.999964C0.868376 19 0.73914 18.9652 0.625233 18.8993C0.511326 18.8335 0.416756 18.7388 0.351021 18.6248C0.285286 18.5108 0.250699 18.3815 0.250732 18.2499C0.250766 18.1183 0.28542 17.9891 0.351214 17.8751C1.77903 15.4067 3.97934 13.6367 6.54715 12.7976C5.277 12.0415 4.29016 10.8893 3.7382 9.51804C3.18624 8.14678 3.09967 6.63224 3.49178 5.20701C3.8839 3.78178 4.73301 2.52467 5.90874 1.62873C7.08446 0.732786 8.52178 0.247559 9.99996 0.247559C11.4781 0.247559 12.9155 0.732786 14.0912 1.62873C15.2669 2.52467 16.116 3.78178 16.5081 5.20701C16.9003 6.63224 16.8137 8.14678 16.2617 9.51804C15.7098 10.8893 14.7229 12.0415 13.4528 12.7976C16.0206 13.6367 18.2209 15.4067 19.6487 17.8751C19.7147 17.989 19.7495 18.1183 19.7497 18.25C19.7498 18.3816 19.7153 18.511 19.6497 18.6251Z" fill="#1E293B"/>
</svg>
