<svg width="22" height="18" viewBox="0 0 22 18" fill="none" xmlns="http://www.w3.org/2000/svg">
<path d="M21.125 16.5C21.125 16.7984 21.0065 17.0845 20.7955 17.2955C20.5845 17.5065 20.2984 17.625 20 17.625H2C1.70163 17.625 1.41548 17.5065 1.2045 17.2955C0.993526 17.0845 0.875 16.7984 0.875 16.5V1.5C0.875 1.20163 0.993526 0.915483 1.2045 0.704505C1.41548 0.493526 1.70163 0.375 2 0.375C2.29837 0.375 2.58452 0.493526 2.7955 0.704505C3.00647 0.915483 3.125 1.20163 3.125 1.5V10.7812L7.20406 6.70125C7.30858 6.59637 7.43277 6.51315 7.56952 6.45637C7.70626 6.39959 7.85287 6.37036 8.00094 6.37036C8.149 6.37036 8.29561 6.39959 8.43236 6.45637C8.5691 6.51315 8.6933 6.59637 8.79781 6.70125L11 8.90625L15.0312 4.875H14C13.7016 4.875 13.4155 4.75647 13.2045 4.5455C12.9935 4.33452 12.875 4.04837 12.875 3.75C12.875 3.45163 12.9935 3.16548 13.2045 2.9545C13.4155 2.74353 13.7016 2.625 14 2.625H17.75C18.0484 2.625 18.3345 2.74353 18.5455 2.9545C18.7565 3.16548 18.875 3.45163 18.875 3.75V7.5C18.875 7.79837 18.7565 8.08452 18.5455 8.2955C18.3345 8.50647 18.0484 8.625 17.75 8.625C17.4516 8.625 17.1655 8.50647 16.9545 8.2955C16.7435 8.08452 16.625 7.79837 16.625 7.5V6.46875L11.7959 11.2988C11.6914 11.4036 11.5672 11.4868 11.4305 11.5436C11.2937 11.6004 11.1471 11.6296 10.9991 11.6296C10.851 11.6296 10.7044 11.6004 10.5676 11.5436C10.4309 11.4868 10.3067 11.4036 10.2022 11.2988L8 9.09375L3.125 13.9688V15.375H20C20.2984 15.375 20.5845 15.4935 20.7955 15.7045C21.0065 15.9155 21.125 16.2016 21.125 16.5Z" fill="#4F46E5"/>
</svg>
